<svg width="25" height="25" viewBox="0 0 25 25" fill="none" xmlns="http://www.w3.org/2000/svg">
<mask id="mask0_3_34" style="mask-type:alpha" maskUnits="userSpaceOnUse" x="0" y="0" width="25" height="25">
<rect x="0.943588" y="0.854004" width="24" height="24" fill="#D9D9D9"/>
</mask>
<g mask="url(#mask0_3_34)">
<path d="M12.9436 22.854C11.6936 22.854 10.5228 22.6165 9.43109 22.1415C8.33942 21.6665 7.38942 21.0248 6.58109 20.2165C5.77275 19.4082 5.13109 18.4582 4.65609 17.3665C4.18109 16.2748 3.94359 15.104 3.94359 13.854H5.94359C5.94359 15.804 6.62275 17.4582 7.98109 18.8165C9.33942 20.1748 10.9936 20.854 12.9436 20.854C14.8936 20.854 16.5478 20.1748 17.9061 18.8165C19.2644 17.4582 19.9436 15.804 19.9436 13.854C19.9436 11.904 19.2644 10.2498 17.9061 8.8915C16.5478 7.53317 14.8936 6.854 12.9436 6.854H12.7936L14.3436 8.404L12.9436 9.854L8.94359 5.854L12.9436 1.854L14.3436 3.304L12.7936 4.854H12.9436C14.1936 4.854 15.3644 5.0915 16.4561 5.5665C17.5478 6.0415 18.4978 6.68317 19.3061 7.4915C20.1144 8.29984 20.7561 9.24984 21.2311 10.3415C21.7061 11.4332 21.9436 12.604 21.9436 13.854C21.9436 15.104 21.7061 16.2748 21.2311 17.3665C20.7561 18.4582 20.1144 19.4082 19.3061 20.2165C18.4978 21.0248 17.5478 21.6665 16.4561 22.1415C15.3644 22.6165 14.1936 22.854 12.9436 22.854Z" fill="#212121"/>
</g>
</svg>
